<mxfile host="65bd71144e">
    <diagram id="l3XkdlVJ3EJspd8J51zn" name="Page-1">
        <mxGraphModel dx="1561" dy="764" grid="1" gridSize="10" guides="1" tooltips="1" connect="1" arrows="1" fold="1" page="1" pageScale="1" pageWidth="1169" pageHeight="827" math="0" shadow="0">
            <root>
                <mxCell id="0"/>
                <mxCell id="1" parent="0"/>
                <mxCell id="23" value="" style="rounded=0;whiteSpace=wrap;html=1;shadow=0;glass=0;sketch=0;fontFamily=Comic Sans MS;fillColor=#f5f5f5;fixDash=0;movable=0;strokeColor=#666666;fontColor=#333333;" vertex="1" parent="1">
                    <mxGeometry x="10" y="10" width="1150" height="800" as="geometry"/>
                </mxCell>
                <mxCell id="11" value="" style="rounded=0;whiteSpace=wrap;html=1;glass=0;sketch=0;fontFamily=Comic Sans MS;fillColor=#FFFFFF;movable=0;" vertex="1" parent="1">
                    <mxGeometry x="40" y="80" width="1080" height="680" as="geometry"/>
                </mxCell>
                <mxCell id="2" value="libsql_util" style="rounded=1;whiteSpace=wrap;html=1;fontFamily=Comic Sans MS;fillColor=#60a917;fontColor=#000000;strokeColor=#2D7600;fontSize=16;" vertex="1" parent="1">
                    <mxGeometry x="349" y="654" width="120" height="60" as="geometry"/>
                </mxCell>
                <mxCell id="3" value="tarantula&lt;br style=&quot;font-size: 16px;&quot;&gt;a spider engine" style="rounded=1;whiteSpace=wrap;html=1;fontFamily=Comic Sans MS;fillColor=#0050ef;fontColor=#000000;strokeColor=#001DBC;sketch=1;fontSize=16;" vertex="1" parent="1">
                    <mxGeometry x="201" y="485" width="120" height="60" as="geometry"/>
                </mxCell>
                <mxCell id="4" value="event engine" style="rounded=1;whiteSpace=wrap;html=1;fontFamily=Comic Sans MS;fillColor=#0050ef;fontColor=#000000;strokeColor=#001DBC;sketch=1;shadow=0;fontSize=16;" vertex="1" parent="1">
                    <mxGeometry x="201" y="300" width="120" height="60" as="geometry"/>
                </mxCell>
                <mxCell id="5" value="finance model" style="rounded=1;whiteSpace=wrap;html=1;fontFamily=Comic Sans MS;fillColor=#60a917;fontColor=#000000;strokeColor=#2D7600;fontSize=16;" vertex="1" parent="1">
                    <mxGeometry x="498" y="485" width="120" height="60" as="geometry"/>
                </mxCell>
                <mxCell id="6" value="basic_utils" style="rounded=1;whiteSpace=wrap;html=1;fontFamily=Comic Sans MS;fillColor=#60a917;fontColor=#000000;strokeColor=#2D7600;fontSize=16;" vertex="1" parent="1">
                    <mxGeometry x="201" y="654" width="120" height="60" as="geometry"/>
                </mxCell>
                <mxCell id="7" value="Donetsk&lt;br style=&quot;font-size: 16px;&quot;&gt;website work" style="rounded=1;whiteSpace=wrap;html=1;fontFamily=Comic Sans MS;fillColor=#0050ef;fontColor=#000000;strokeColor=#001DBC;sketch=1;fontSize=16;" vertex="1" parent="1">
                    <mxGeometry x="201" y="142" width="120" height="60" as="geometry"/>
                </mxCell>
                <mxCell id="8" value="NLP engine" style="rounded=1;whiteSpace=wrap;html=1;fontFamily=Comic Sans MS;glass=0;fillColor=#f5f5f5;strokeColor=#666666;fontColor=#333333;sketch=1;fontSize=16;" vertex="1" parent="1">
                    <mxGeometry x="497" y="654" width="120" height="60" as="geometry"/>
                </mxCell>
                <mxCell id="9" value="Risk Manager" style="rounded=1;whiteSpace=wrap;html=1;fontFamily=Comic Sans MS;fontColor=#333333;fillColor=#f5f5f5;strokeColor=#666666;sketch=1;fontSize=16;" vertex="1" parent="1">
                    <mxGeometry x="348" y="485" width="120" height="60" as="geometry"/>
                </mxCell>
                <mxCell id="10" value="AL engine" style="rounded=1;whiteSpace=wrap;html=1;fontFamily=Comic Sans MS;fillColor=#f5f5f5;strokeColor=#666666;fontColor=#333333;sketch=1;fontSize=16;" vertex="1" parent="1">
                    <mxGeometry x="645" y="654" width="120" height="60" as="geometry"/>
                </mxCell>
                <mxCell id="12" value="Model" style="rounded=0;whiteSpace=wrap;html=1;glass=0;sketch=0;fontFamily=Comic Sans MS;fillColor=#6a00ff;fontColor=#000000;strokeColor=#3700CC;rotation=-90;fontSize=16;movable=0;" vertex="1" parent="1">
                    <mxGeometry x="1" y="487" width="120" height="40" as="geometry"/>
                </mxCell>
                <mxCell id="13" value="Basic utils" style="rounded=0;whiteSpace=wrap;html=1;glass=0;sketch=0;fontFamily=Comic Sans MS;fillColor=#60a917;fontColor=#000000;strokeColor=#2D7600;rotation=-90;fontSize=16;movable=0;" vertex="1" parent="1">
                    <mxGeometry x="1" y="663" width="120" height="40" as="geometry"/>
                </mxCell>
                <mxCell id="14" value="Transaction" style="rounded=0;whiteSpace=wrap;html=1;glass=0;sketch=0;fontFamily=Comic Sans MS;fillColor=#f0a30a;fontColor=#000000;strokeColor=#BD7000;rotation=-90;fontSize=16;movable=0;" vertex="1" parent="1">
                    <mxGeometry x="1" y="311" width="120" height="40" as="geometry"/>
                </mxCell>
                <mxCell id="15" value="Application" style="rounded=0;whiteSpace=wrap;html=1;glass=0;sketch=0;fontFamily=Comic Sans MS;fillColor=#f5f5f5;rotation=-90;strokeColor=#666666;fontColor=#333333;fontSize=16;movable=0;" vertex="1" parent="1">
                    <mxGeometry x="1" y="152" width="120" height="40" as="geometry"/>
                </mxCell>
                <mxCell id="24" value="&lt;h1&gt;Framework of Phoenix Quantitive System&lt;/h1&gt;" style="text;html=1;strokeColor=#666666;fillColor=#f5f5f5;spacing=5;spacingTop=-20;whiteSpace=wrap;overflow=hidden;rounded=1;shadow=1;glass=0;sketch=0;fontFamily=Comic Sans MS;fontColor=#333333;align=center;verticalAlign=middle;movable=0;" vertex="1" parent="1">
                    <mxGeometry x="321" y="28" width="540" height="38" as="geometry"/>
                </mxCell>
            </root>
        </mxGraphModel>
    </diagram>
</mxfile>